# xmcd CD database file
#
# Track frame offsets:
#	150
#	2989
#	7986
#	24445
#	39949
#	55529
#	67613
#	72728
#	88173
#	104084
#	122022
#	140716
#	157993
#	166112
#
# Disc length: 2299 seconds
#
# Revision: 0
# Processed by: cddbd v1.5.2PL0 Copyright (c) Steve Scherf et al.
# Submitted via: CDex 1.70beta2
#
DISCID=ae08f90e
DTITLE=Craig n Co - Passover Lounge
DYEAR=2006
DGENRE=New Age
TTITLE0=Welcome
TTITLE1=Kadesh Urchatz 
TTITLE2=Halachmanya
TTITLE3=Ma Nishtana
TTITLE4=Avadim Hayenu
TTITLE5=V'hee Sh'amda
TTITLE6=Plagues
TTITLE7=Dayenu
TTITLE8=Eliyahu Hanavi
TTITLE9=Adir Hu
TTITLE10=Echad Me Yodea
TTITLE11=Chad Gadya
TTITLE12=L'shana Ha'baah 
TTITLE13=Crickets
EXTD=YEAR: 2006
EXTT0=
EXTT1=
EXTT2=
EXTT3=
EXTT4=
EXTT5=
EXTT6=
EXTT7=
EXTT8=
EXTT9=
EXTT10=
EXTT11=
EXTT12=
EXTT13=
PLAYORDER=
